<?xml version="1.0" standalone="no"?>
<!DOCTYPE svg PUBLIC "-//W3C//DTD SVG 20010904//EN"
 "http://www.w3.org/TR/2001/REC-SVG-20010904/DTD/svg10.dtd">
<svg version="1.0" xmlns="http://www.w3.org/2000/svg"
 width="100.000000pt" height="100.000000pt" viewBox="0 0 100.000000 100.000000"
 preserveAspectRatio="xMidYMid meet">
<metadata>
Created by potrace 1.14, written by Peter Selinger 2001-2017
</metadata>
<g transform="translate(0.000000,100.000000) scale(0.100000,-0.100000)"
fill="#000000" stroke="none">
<path d="M60 912 c-36 -11 -60 -46 -60 -84 0 -36 2 -38 33 -39 41 -1 785 -1
815 0 44 2 22 101 -27 120 -26 10 -731 13 -761 3z"/>
<path d="M27 752 c-25 -3 -27 -7 -27 -48 0 -28 4 -44 13 -45 21 0 821 -1 840
0 13 1 17 10 17 46 0 29 -4 45 -12 46 -35 3 -807 4 -831 1z"/>
<path d="M10 622 c-13 -5 -13 -317 0 -343 22 -41 54 -45 290 -45 l225 1 6 71
c7 74 16 98 56 152 50 67 151 106 235 92 21 -4 40 -5 43 -2 8 8 6 72 -2 73
-21 3 -844 4 -853 1z m266 -144 c16 -17 -14 -28 -76 -28 -65 0 -97 13 -71 29
13 8 138 7 147 -1z m79 -108 c0 -12 -21 -15 -114 -15 -78 0 -116 4 -118 12 -6
16 16 19 132 18 81 -1 100 -4 100 -15z"/>
<path d="M706 505 c-87 -31 -150 -131 -141 -225 19 -186 247 -263 373 -126
155 168 -17 428 -232 351z m105 -98 c37 -46 39 -51 28 -67 -7 -12 -13 -9 -33
15 -20 25 -26 28 -40 16 -26 -22 -14 -49 24 -56 57 -11 71 -70 26 -111 -14
-14 -26 -29 -26 -34 0 -5 -7 -7 -15 -4 -8 3 -13 9 -12 12 1 4 -8 17 -20 30
-26 25 -31 62 -8 62 8 0 15 -7 15 -15 0 -21 34 -37 48 -23 21 21 13 37 -25 53
-21 9 -41 21 -45 28 -16 24 -8 64 17 85 14 12 25 26 25 32 0 18 15 10 41 -23z"/>
</g>
</svg>
